PathFileType	4	(X/Y/Z)	C:/Users/beibeiliu/ov580/test_trc/User2\sequence.37_training_dense_right.trc
DataRate	CameraRate	NumFrames	NumMarkers	Units	OrigDataRate	OrigDataStartFrame	OrigNumFrames
120	120	14	19	mm	120	126	500
Frame#	Time	ThumbCMC			ThumbMCP			ThumbIP			ThumbTip			IndexMCP			IndexPIP			IndexTip			MiddleMCP			MiddlePIP			MiddleTip			RingMCP			RingPIP			RingTip			PinkyMCP			PinkyPIP			PinkyTip			BackHand1			BackHand2			BackHand3	
		X0	Y0	Z0	X1	Y1	Z1	X2	Y2	Z2	X3	Y3	Z3	X4	Y4	Z4	X5	Y5	Z5	X6	Y6	Z6	X7	Y7	Z7	X8	Y8	Z8	X9	Y9	Z9	X10	Y10	Z10	X11	Y11	Z11	X12	Y12	Z12	X13	Y13	Z13	X14	Y14	Z14	X15	Y15	Z15	X16	Y16	Z16	X17	Y17	Z17	X18	Y18	Z18	
125	1.04167	87.833	13.1783	70.6343	55.0155	21.1519	47.0041	29.5094	13.7056	26.5144	10.9627	-0.893109	9.44219	80.2402	-17.743	-5.11913	54.617	-14.0843	-24.5196	19.8107	-5.99081	-20.8371	67.6779	-40.4972	-4.53499	33.881	-29.3509	-21.3251	-0.00325875	-16.2545	-6.26119	55.1284	-55.453	5.17267	23.2116	-49.3085	-4.48867	3.44985	-27.5536	2.85626	48.8254	-67.1206	28.0331	24.3287	-62.4535	13.3299	0.939667	-45.589	9.75914	94.263	-59.299	57.1995	105.077	-51.7108	89.3816	112.648	-21.0409	62.2374	
126	1.05	84.255	11.9299	70.977	53.5588	19.4228	50.3302	26.948	13.1566	25.8893	10.167	-1.83252	13.4778	79.5839	-14.9903	-5.13579	49.5579	-16.4261	-23.421	18.3386	-11.1356	-18.9176	65.6654	-40.1322	-6.23927	32.1581	-32.9186	-18.3609	0.412173	-20.7619	-4.10042	53.4939	-58.9589	5.26945	26.4395	-50.0926	-4.34043	-0.52272	-30.4814	7.60457	49.0858	-70.7092	28.1676	20.8778	-65.466	14.5256	-0.266435	-45.6336	11.045	95.8226	-55.4218	56.019	106.219	-53.519	90.1781	113.44	-21.233	61.5367	
127	1.05833	83.4451	12.5326	71.1046	52.1259	14.9574	49.9155	25.4783	11.5684	29.2934	8.23187	-3.84104	12.8556	76.1405	-19.738	-3.82965	49.1155	-14.6975	-24.0759	16.2297	-8.97868	-19.0034	67.0185	-37.787	-4.96641	30.0092	-34.4875	-16.4696	-1.7492	-19.4967	-2.47402	55.875	-55.874	5.50452	22.7172	-50.4862	-3.86369	0.28454	-33.1594	8.81404	46.8255	-72.897	24.6519	18.9876	-63.063	13.3275	-3.23722	-46.8662	13.1545	93.3712	-57.3197	56.5731	106.332	-48.8088	92.5372	110.177	-22.0912	66.5467	
128	1.06667	82.6916	16.2114	72.8946	51.1821	18.1646	53.5736	24.3982	10.2228	29.2562	5.4905	-4.92427	10.4535	76.4676	-16.8935	-5.00787	51.4555	-18.419	-21.1185	18.669	-11.8139	-18.5639	67.708	-38.1088	-1.81657	31.1217	-32.2316	-18.154	-2.23409	-18.846	-2.48576	55.3591	-55.4688	3.98036	24.3951	-49.4066	-4.71928	0.1691	-29.1562	9.2634	46.5618	-72.953	25.9431	23.5659	-64.0865	12.8577	2.05234	-46.0876	13.219	92.58	-56.2113	56.0031	106.92	-52.1901	90.3006	109.898	-20.616	67.1098	
129	1.075	80.6059	12.6853	71.6339	49.7505	17.1674	50.457	22.6777	12.1992	27.3296	4.69264	-3.2904	12.2258	73.995	-19.4118	-5.51378	50.9466	-15.7092	-22.645	17.9041	-11.6257	-19.2033	66.0649	-37.499	-5.90222	30.5153	-35.0503	-17.377	-1.56855	-17.4864	-4.06873	56.7595	-55.3157	6.15332	28.3671	-51.948	-4.48408	-0.476814	-31.1255	9.11159	51.3826	-68.679	28.1431	19.1552	-65.0286	13.9506	-2.99446	-48.3688	14.8359	94.0484	-54.0878	57.7505	106.166	-47.2985	92.2857	111.161	-18.3036	65.1372	
130	1.08333	80.9189	13.2544	73.9882	47.0849	18.849	48.5918	22.482	8.34717	26.2846	5.56959	-6.77847	13.2829	76.1975	-17.1074	-3.56711	51.4144	-14.1311	-22.5691	18.246	-14.4513	-19.7719	64.6773	-40.6982	-4.66618	30.9018	-33.8854	-17.5751	0.768464	-21.8762	-6.11534	56.4444	-56.9179	6.19447	27.1049	-50.2714	-5.38629	-0.45875	-30.8737	6.45478	50.7911	-67.7922	24.8121	24.71	-66.9143	13.1661	-1.5064	-49.1283	9.27051	95.8074	-51.9015	56.7735	104.484	-51.3241	91.9105	108.905	-19.0381	65.0748	
131	1.09167	79.9744	12.6938	71.6513	48.1761	19.6683	53.7291	20.2386	11.1943	26.1821	5.40539	-4.28376	13.19	79.0564	-12.5654	-2.88066	53.7162	-15.2505	-23.1134	20.7339	-9.84276	-22.5918	69.6951	-38.3454	-1.43151	32.5838	-33.6752	-19.0116	-0.884519	-24.4363	-6.05425	59.646	-56.4275	7.64847	30.279	-51.1943	-7.08129	0.818063	-33.4693	5.08922	53.363	-69.5349	25.1381	24.5167	-64.1464	10.149	1.00205	-52.032	7.33813	95.9361	-50.5192	59.2264	107.147	-49.9956	87.2516	109.753	-18.7883	63.1647	
132	1.1	80.4002	18.2213	75.2932	47.8789	21.4954	52.8614	21.6322	11.9825	24.9385	8.21165	-6.64021	13.4264	79.296	-16.576	-0.89702	54.7529	-18.1453	-21.9948	18.665	-9.98302	-25.1669	73.7124	-34.9322	-4.18616	36.2438	-35.0719	-21.1843	4.26426	-26.6135	-10.9132	61.742	-55.7596	5.23787	35.6747	-51.9256	-9.06024	5.23472	-32.7357	-0.0539435	56.765	-69.7354	26.8739	27.2888	-63.3532	7.71781	5.89608	-49.399	6.74036	98.9482	-53.0633	59.1792	107.004	-50.5819	91.9282	113.195	-16.1042	67.7531	
133	1.10833	81.6969	18.8935	74.2182	49.5205	16.7764	49.4765	25.6305	9.97057	28.2982	9.72816	-6.65433	12.4135	82.3467	-12.5063	-5.89969	56.7667	-14.776	-24.9835	21.942	-15.3647	-25.8148	73.2492	-38.8302	-5.1524	44.4971	-33.5784	-22.8742	6.78708	-27.5706	-13.721	65.0315	-57.2848	5.72317	36.7863	-55.5649	-9.05452	7.08404	-40.0387	-1.89074	56.4157	-71.8988	23.6767	27.5616	-66.4394	7.27709	9.43812	-50.9714	4.71803	98.6694	-51.1657	57.453	110.482	-45.7201	86.5233	113.047	-13.9907	65.2588	
134	1.11667	84.9047	14.4721	72.8259	53.0467	18.1255	51.0308	25.4476	14.0313	22.7084	10.9475	-4.44035	7.05598	85.9112	-17.009	-5.08246	63.319	-14.8683	-27.6211	27.1572	-13.2412	-30.2662	77.9334	-36.6023	-7.7823	44.5314	-35.8407	-24.9191	6.20281	-25.4567	-13.9067	67.8545	-55.6322	2.8899	40.4825	-53.9747	-11.1108	8.31554	-33.1181	-4.6854	60.6383	-69.6	24.9236	31.3995	-62.8426	5.66896	9.90994	-49.764	2.34817	102.919	-50.4944	58.7058	110.306	-46.5596	91.5297	115.736	-18.8848	66.6645	
135	1.125	89.1435	15.493	67.1363	56.6601	22.1479	45.6205	30.3178	15.393	19.1061	15.8864	-2.6423	6.06134	91.0089	-16.4517	-7.01659	66.2191	-21.6569	-28.3972	33.4735	-17.7834	-32.6825	77.6371	-41.7799	-9.34124	46.7677	-38.0143	-26.227	13.5256	-25.912	-19.2349	65.8553	-57.9784	0.377848	37.602	-52.7681	-12.3152	11.985	-36.7961	-6.5411	58.7924	-69.4267	23.7417	29.6569	-64.6203	5.42696	8.01744	-49.4229	1.50686	100.36	-54.1451	54.9769	113.057	-48.628	89.8277	116.23	-20.29	60.847	
136	1.13333	95.3095	15.07	66.3551	64.8087	18.0685	42.2965	39.3511	13.6285	18.4149	22.3743	-1.31148	2.78268	93.7262	-25.6744	-6.46081	72.6765	-22.4381	-32.3319	36.5864	-18.1186	-35.4425	80.007	-45.3459	-8.8988	52.3799	-38.7722	-27.7765	17.3518	-25.1275	-19.7496	67.4559	-62.3637	4.22928	40.5808	-55.7971	-11.0431	12.3453	-33.7645	-7.79584	58.7249	-70.9337	23.1626	29.8414	-63.7895	6.80637	10.5649	-44.6925	0.547054	102.232	-57.8977	54.6571	110.541	-52.6981	90.7145	120.981	-25.3952	59.9232	
137	1.14167	101.959	13.1096	62.0503	72.2313	17.5806	36.1192	46.8101	13.5839	9.56527	28.9556	-1.27619	0.790981	96.3348	-31.1277	-12.2012	75.1605	-27.851	-33.7375	44.5015	-19.1597	-40.363	82.1043	-49.6202	-9.27558	50.2819	-39.3746	-30.1376	21.6691	-21.277	-21.3248	66.6882	-65.3841	1.43418	39.6864	-53.6659	-14.0666	16.5984	-28.6494	-8.49062	56.243	-71.2925	21.2714	31.6243	-63.911	6.39197	8.18245	-44.5264	2.80762	101.643	-63.5492	58.0485	115.272	-52.7989	86.7809	124.579	-27.3413	57.5161	
138	1.15	108.167	9.57838	58.3006	80.0668	17.2568	32.7835	53.8389	12.0718	6.34151	33.2987	-2.31547	-7.19525	99.0914	-37.4272	-12.5447	77.0756	-32.5726	-36.5881	48.1035	-23.2806	-40.677	84.0518	-54.6091	-10.8469	52.2716	-42.398	-28.9609	25.0141	-25.5869	-20.353	69.407	-66.9597	5.0431	39.9223	-57.6817	-12.2176	21.6017	-28.4587	-9.33506	57.0092	-73.2786	22.7403	33.4408	-63.7726	5.94221	12.1598	-43.1853	-0.376434	104.142	-64.4073	55.4976	113.524	-58.2213	88.0518	126.431	-32.4587	60.7888	
